<?xml version="1.0" encoding="UTF-8"?>
<svg id="Layer_2" xmlns="http://www.w3.org/2000/svg" viewBox="0 0 186.97 186.97">
  <defs>
    <style>
      .cls-1 {
        fill: #ffce00;
      }
    </style>
  </defs>
  <g id="Layer_1-2" data-name="Layer_1">
    <circle class="cls-1" cx="93.49" cy="93.49" r="93.49"/>
    <path d="M78.42,161.45c-4.17-1.53-7.6-3.78-10.3-6.75-2.7-2.97-4.68-6.62-5.93-10.97-1.26-4.35-1.89-9.34-1.89-14.98v-4.5c.12-4.26.54-8.21,1.26-11.87.72-3.66,1.92-7.07,3.6-10.25s3.93-6.16,6.74-8.95c.78-.77,1.62-1.53,2.51-2.29-2.3-1.25-4.29-2.8-5.97-4.65-3.94-4.33-6.38-10.3-7.32-17.94-.31-2.43-.46-5.02-.46-7.79v-3c0-2.76.15-5.36.46-7.79.94-7.63,3.39-13.61,7.32-17.93,1.68-1.85,3.67-3.4,5.97-4.65,4.79-2.6,10.91-3.9,18.36-3.9,10.61,0,18.72,2.71,24.33,8.14,4.74,4.58,7.47,11.41,8.21,20.49,0,.07.01.14.01.22.12,1.99.19,4.11.19,6.35v1.13c0,2.25-.06,4.37-.19,6.35,0,.07-.01.15-.01.23-.13,1.9-.31,3.68-.56,5.33-.51,3.45-1.5,6.64-2.97,9.58-1.47,2.94-3.57,5.74-6.3,8.41-2.73,2.67-6.34,5.47-10.84,8.41l-12.95,8.37c-2.04,1.32-3.7,2.68-5,4.09-1.29,1.41-2.31,2.96-3.06,4.64s-1.26,3.55-1.53,5.62-.4,4.39-.4,6.97v1.08c0,2.1.19,4.03.58,5.8.39,1.77,1.03,3.28,1.93,4.54.9,1.26,2.11,2.25,3.64,2.97,1.53.72,3.47,1.08,5.8,1.08s4.36-.31,5.89-.95c1.53-.63,2.73-1.58,3.6-2.88.87-1.29,1.47-2.89,1.8-4.81.33-1.92.49-4.14.49-6.66v-9.17s21.23,0,21.23,0v9.36c0,5.69-.51,10.76-1.53,15.2-1.02,4.44-2.8,8.18-5.35,11.24-2.55,3.06-5.97,5.39-10.26,6.97-4.29,1.59-9.67,2.38-16.15,2.38-5.81,0-10.81-.76-14.98-2.29ZM95,74.18c5.12,0,9.27-4.16,9.27-9.28v-11.8c0-5.12-4.15-9.27-9.27-9.27h-3.79c-5.13,0-9.28,4.15-9.28,9.27v11.8c0,5.12,4.15,9.28,9.28,9.28h3.79Z"/>
  </g>
</svg>