<?xml version="1.0" encoding="UTF-8"?>
<svg id="Layer_2" data-name="Layer 2" xmlns="http://www.w3.org/2000/svg" viewBox="0 0 1000 286.5">
  <defs>
    <style>
      .cls-1, .cls-2 {
        stroke-width: 0px;
      }

      .cls-2 {
        fill: #ffce00;
      }
    </style>
  </defs>
  <g id="Layer_1-2" data-name="Layer 1">
    <g>
      <path class="cls-2" d="m0,168.31l.11-87.27c.02-19.11,17.96-28.56,33.73-17.77l5.43,3.71,16.55,11.31,50.06,34.23c2.06,1.41,4.06,2.94,5.99,4.57,15.32,12.98,25.51,32.32,27.55,52.29.04.33.07.66.09.99l15.22-8.02c-1.86-9.96-5.29-19.8-10.18-29.07-7.76-14.73-18.75-27.23-31.8-36.15l-1.25-.86-50.22-34.32c-1.69-1.15-3.05-2.69-3.99-4.48s-1.44-3.76-1.44-5.82c.02-17.3,19.42-27.55,33.73-17.77l21.98,15.02,50.06,34.23c18.91,12.91,31.61,35.03,33.63,57.86l15.22-8.02c-1.86-9.96-5.29-19.8-10.18-29.07-7.76-14.73-18.75-27.23-31.8-36.15l-51.47-35.18c-1.69-1.15-3.05-2.69-3.99-4.48-.93-1.77-1.44-3.76-1.44-5.82.02-19.11,17.96-28.56,33.73-17.77l72.04,49.25c18.91,12.91,31.61,35.03,33.63,57.86.21,2.17.3,4.36.29,6.53v13.85s-.04,19.76-.04,19.76l-.06,53.67c0,9.55-4.51,16.69-10.96,20.1l-111.48,58.74c-6.45,3.4-14.89,3.07-22.77-2.32l-44.3-30.3-16.31-11.15-11.43-7.82c-1.8-1.22-3.55-2.53-5.22-3.93C11.02,214.19-.05,191.21,0,168.31Zm212.11-15.65l-16.58,8.73-.03,19.76,16.58-8.73.03-19.76Zm-72.35,57.86l16.58-8.73.03-19.76-16.58,8.73-.03,19.76Z"/>
      <g>
        <path class="cls-1" d="m324.87,99.12h68.63v16.05h-48.27v21.56h43.6v16.29h-43.6v35.09h-20.36v-88.99Z"/>
        <path class="cls-1" d="m411.35,185.65c-5.67-2.91-9.96-7.05-12.88-12.4-2.92-5.35-4.37-11.66-4.37-18.92v-3.23c0-7.26,1.44-13.57,4.31-18.92,2.87-5.35,7.17-9.48,12.88-12.4,5.71-2.91,12.67-4.37,20.9-4.37s15.07,1.46,20.78,4.37c5.71,2.92,9.98,7.05,12.82,12.4,2.83,5.35,4.25,11.66,4.25,18.92v3.23c0,7.27-1.42,13.58-4.25,18.92-2.84,5.35-7.11,9.48-12.82,12.4-5.71,2.91-12.64,4.37-20.78,4.37s-15.17-1.46-20.84-4.37Zm31.44-13.47c2.91-1.6,5.13-3.87,6.65-6.83,1.52-2.95,2.28-6.63,2.28-11.02v-3.23c0-4.31-.76-7.96-2.28-10.96-1.52-2.99-3.73-5.29-6.65-6.89-2.92-1.6-6.45-2.4-10.6-2.4s-7.81.8-10.72,2.4c-2.92,1.6-5.09,3.91-6.53,6.95-1.44,3.04-2.16,6.67-2.16,10.9v3.23c0,4.39.72,8.07,2.16,11.02,1.44,2.96,3.61,5.23,6.53,6.83,2.91,1.6,6.49,2.4,10.72,2.4s7.68-.8,10.6-2.4Z"/>
        <path class="cls-1" d="m478.9,117.32h18.68v4.79l-.48,5.75h1.2l-3.83,5.51c1.6-3.99,3.75-7.32,6.47-10,2.71-2.67,5.87-4.67,9.46-5.99,3.59-1.32,7.43-1.98,11.5-1.98,2.87,0,5.51.28,7.9.84v17.01c-2.87-.72-5.87-1.08-8.98-1.08-4.71,0-8.84.98-12.4,2.93-3.55,1.96-6.27,4.71-8.14,8.26-1.88,3.55-2.81,7.77-2.81,12.64v32.1h-18.56v-70.78Z"/>
        <path class="cls-1" d="m535.3,117.32h18.68v4.79l-.48,5.63h.24c2.47-3.91,5.75-6.95,9.82-9.1,4.07-2.16,8.66-3.23,13.77-3.23,5.83,0,10.84,1.22,15.03,3.65,4.19,2.44,7.44,5.93,9.76,10.48h.24c2.64-4.31,6.19-7.74,10.66-10.3,4.47-2.55,9.62-3.83,15.45-3.83,9.18,0,16.29,2.77,21.32,8.32,5.03,5.55,7.55,13.51,7.55,23.89v40.48h-18.68v-38.45c0-5.75-1.18-10.24-3.53-13.47-2.36-3.23-6.05-4.85-11.08-4.85-3.75,0-7.03.88-9.82,2.63-2.8,1.76-4.93,4.47-6.41,8.14-1.48,3.67-2.21,8.14-2.21,13.41v32.58h-18.56v-38.45c0-5.75-1.2-10.24-3.59-13.47-2.4-3.23-6.03-4.85-10.9-4.85-3.83,0-7.15.88-9.94,2.63-2.8,1.76-4.95,4.47-6.47,8.14-1.52,3.67-2.28,8.14-2.28,13.41v32.58h-18.56v-70.78Z"/>
        <path class="cls-1" d="m680.94,186.73c-5.11-2.12-8.9-5.07-11.38-8.86-2.48-3.79-3.75-8.24-3.83-13.35v.12h18.2v-.12c.16,2.72.98,4.93,2.45,6.65,1.48,1.72,3.45,2.93,5.93,3.65,2.47.72,5.43,1.08,8.86,1.08,4.79,0,8.28-.6,10.48-1.8,2.2-1.2,3.29-3.03,3.29-5.51v-.12c0-2.08-.78-3.71-2.34-4.91-1.56-1.2-3.53-2.11-5.93-2.75-2.4-.64-5.71-1.28-9.94-1.92-6.15-.96-11.18-2.08-15.09-3.35-3.91-1.28-7.31-3.39-10.18-6.35-2.87-2.95-4.31-7.11-4.31-12.46,0-4.15,1.02-7.82,3.05-11.02,2.04-3.19,5.39-5.71,10.06-7.55,4.67-1.84,10.72-2.75,18.14-2.75s13.79,1.06,18.86,3.17c5.07,2.12,8.84,4.91,11.32,8.38,2.47,3.47,3.79,7.33,3.95,11.56h-18.68v-.12c-.32-1.68-1.08-3.19-2.28-4.55-1.2-1.36-2.96-2.4-5.27-3.11-2.32-.72-5.11-1.08-8.38-1.08-4.31,0-7.35.56-9.1,1.68-1.76,1.12-2.64,2.72-2.64,4.79v.12c0,1.92.74,3.45,2.22,4.61,1.48,1.16,3.39,2.06,5.75,2.69,2.35.64,5.57,1.28,9.64,1.92,6.15.88,11.24,1.94,15.27,3.17,4.03,1.24,7.5,3.35,10.42,6.35,2.91,2.99,4.37,7.21,4.37,12.64,0,7.35-2.84,12.9-8.5,16.65-5.67,3.75-14.01,5.63-25.03,5.63-7.83,0-14.29-1.06-19.4-3.17Z"/>
        <path class="cls-1" d="m755.56,185.53c-5.59-2.91-9.86-7.07-12.82-12.46-2.96-5.39-4.43-11.88-4.43-19.46v-2.16c0-7.43,1.5-13.83,4.49-19.22,2.99-5.39,7.29-9.54,12.88-12.46,5.59-2.91,12.26-4.37,20-4.37,7.26,0,13.49,1.12,18.68,3.35,5.19,2.24,9.26,5.53,12.22,9.88,2.95,4.35,4.59,9.64,4.91,15.87h-18.8c-.32-2.79-1.22-5.25-2.69-7.37-1.48-2.11-3.45-3.69-5.93-4.73-2.48-1.04-5.35-1.56-8.62-1.56-3.83,0-7.13.78-9.88,2.33-2.75,1.56-4.87,3.89-6.35,7.01-1.48,3.11-2.22,6.91-2.22,11.38v2.16c0,4.63.76,8.49,2.28,11.56,1.52,3.07,3.63,5.39,6.35,6.95,2.71,1.56,6.03,2.34,9.94,2.34,3.43,0,6.39-.6,8.86-1.8,2.47-1.2,4.41-2.85,5.81-4.97,1.4-2.11,2.29-4.57,2.69-7.37h18.68c-.32,6.31-1.96,11.68-4.91,16.11-2.95,4.43-7.07,7.77-12.34,10-5.27,2.23-11.5,3.35-18.68,3.35-7.83,0-14.53-1.46-20.12-4.37Z"/>
        <path class="cls-1" d="m827.54,186.85c-4.15-2.11-7.17-4.93-9.04-8.44-1.88-3.51-2.81-7.47-2.81-11.86,0-4.79,1.14-8.88,3.41-12.28,2.28-3.39,5.67-5.97,10.18-7.72,4.51-1.76,10.04-2.64,16.59-2.64,4.47,0,8.68.38,12.64,1.14,3.95.76,7.44,1.7,10.48,2.81v-4.07c0-4.47-1.36-8.04-4.07-10.72-2.72-2.67-7.07-4.01-13.05-4.01-5.19,0-9.08,1.12-11.68,3.35-2.6,2.24-3.93,4.99-4.01,8.26v-.24h-18.08v.24c.32-4.31,1.54-8.36,3.65-12.16,2.11-3.79,5.67-6.93,10.66-9.4,4.99-2.47,11.56-3.71,19.7-3.71,9.1,0,16.27,1.32,21.5,3.95,5.23,2.63,8.84,6.23,10.84,10.78,2,4.55,2.99,9.98,2.99,16.29v41.68h-18.44v-5.51l.36-4.67h-.48c-2.32,3.75-5.67,6.71-10.06,8.86-4.39,2.16-9.54,3.23-15.45,3.23-6.39,0-11.66-1.06-15.81-3.17Zm30.96-14.49c3.07-1.72,5.47-3.75,7.19-6.11,1.72-2.35,2.65-4.49,2.81-6.41-2.64-1.04-5.75-1.92-9.34-2.64-3.59-.72-7.19-1.08-10.78-1.08-4.79,0-8.36.82-10.72,2.46-2.36,1.64-3.53,3.97-3.53,7.01s1.1,5.25,3.29,6.89c2.19,1.64,5.53,2.45,10,2.45s8-.86,11.08-2.57Z"/>
        <path class="cls-1" d="m899.16,96.48h18.56v91.62h-18.56v-91.62Z"/>
        <path class="cls-1" d="m930.71,132.17c2.83-5.35,7.07-9.48,12.7-12.4,5.63-2.91,12.35-4.37,20.18-4.37s14.47,1.36,19.94,4.07c5.47,2.72,9.58,6.83,12.34,12.34,2.75,5.51,4.13,12.22,4.13,20.12v5.75h-54.73c0,3.19.78,6.07,2.33,8.62,1.56,2.56,3.73,4.59,6.53,6.11,2.79,1.52,6.07,2.28,9.82,2.28,5.11,0,9.1-1.04,11.98-3.11,2.87-2.08,4.67-4.83,5.39-8.26v-.12h18.32v.12c-.56,5.27-2.28,9.92-5.15,13.95-2.87,4.03-6.95,7.17-12.22,9.4-5.27,2.23-11.66,3.35-19.16,3.35s-14.47-1.48-19.94-4.43c-5.47-2.95-9.62-7.19-12.46-12.7-2.84-5.51-4.25-12.06-4.25-19.64v-1.92c0-7.43,1.42-13.81,4.25-19.16Zm50.72,13.29v.12c0-2.79-.74-5.29-2.22-7.49-1.48-2.2-3.57-3.95-6.29-5.27-2.72-1.32-5.87-1.98-9.46-1.98-3.83,0-7.05.64-9.64,1.92-2.6,1.28-4.59,2.99-5.99,5.15-1.4,2.16-2.1,4.71-2.1,7.67l35.69-.12Z"/>
      </g>
    </g>
  </g>
</svg>