<?xml version="1.0" encoding="UTF-8"?>
<svg id="Layer_2" xmlns="http://www.w3.org/2000/svg" viewBox="0 0 78.74 166.64">
  <defs>
    <style>
      .cls-1 {
        fill: #ffce00;
      }
    </style>
  </defs>
  <g id="Layer_1-2" data-name="Layer_1">
    <path class="cls-1" d="M21.5,163.92c-4.94-1.81-9.02-4.48-12.22-8-3.2-3.52-5.55-7.86-7.04-13.01C.75,137.75,0,131.83,0,125.14v-5.34c.15-5.05.64-9.74,1.5-14.08.85-4.34,2.28-8.39,4.27-12.16,1.99-3.77,4.66-7.31,8-10.62.93-.91,1.92-1.82,2.97-2.71-2.73-1.48-5.08-3.32-7.08-5.51-4.67-5.13-7.57-12.22-8.69-21.28-.37-2.88-.55-5.95-.55-9.24v-3.56c0-3.28.18-6.36.55-9.24,1.12-9.05,4.02-16.15,8.69-21.27,2-2.19,4.35-4.03,7.08-5.51C22.41,1.54,29.68,0,38.52,0c12.58,0,22.21,3.22,28.85,9.66,5.62,5.43,8.86,13.53,9.73,24.3,0,.09.01.17.02.26.15,2.36.23,4.87.23,7.54v1.34c0,2.67-.08,5.18-.23,7.53,0,.09-.01.18-.02.28-.15,2.25-.37,4.36-.66,6.32-.6,4.09-1.78,7.88-3.52,11.36-1.74,3.49-4.23,6.81-7.47,9.98-3.23,3.16-7.52,6.49-12.85,9.97l-15.36,9.92c-2.42,1.56-4.39,3.18-5.92,4.85-1.53,1.67-2.74,3.51-3.63,5.5s-1.49,4.21-1.81,6.67-.48,5.21-.48,8.27v1.28c0,2.49.23,4.78.69,6.88.46,2.1,1.23,3.89,2.29,5.39,1.07,1.49,2.51,2.67,4.32,3.53,1.82.85,4.11,1.28,6.88,1.28s5.17-.37,6.99-1.13c1.81-.75,3.24-1.88,4.27-3.41,1.04-1.53,1.75-3.43,2.14-5.71.39-2.28.59-4.91.59-7.9v-10.88s25.17,0,25.17,0v11.1c0,6.75-.6,12.76-1.81,18.03-1.21,5.26-3.32,9.7-6.35,13.33-3.02,3.63-7.08,6.39-12.16,8.27-5.08,1.88-11.47,2.83-19.15,2.83-6.9,0-12.82-.91-17.76-2.72ZM41.17,60.43c6.07,0,11-4.93,11-11v-13.99c0-6.07-4.92-11-11-11h-4.49c-6.08,0-11,4.92-11,11v13.99c0,6.07,4.92,11,11,11h4.49Z"/>
  </g>
</svg>